<mxfile host="app.diagrams.net" agent="Mozilla/5.0 (Windows NT 10.0; Win64; x64) AppleWebKit/537.36 (KHTML, like Gecko) Chrome/130.0.0.0 Safari/537.36" version="24.8.6">
  <diagram id="C5RBs43oDa-KdzZeNtuy" name="Page-1">
    <mxGraphModel dx="3267" dy="1292" grid="1" gridSize="10" guides="1" tooltips="1" connect="1" arrows="1" fold="1" page="1" pageScale="1" pageWidth="827" pageHeight="1169" math="0" shadow="0">
      <root>
        <mxCell id="WIyWlLk6GJQsqaUBKTNV-0" />
        <mxCell id="WIyWlLk6GJQsqaUBKTNV-1" parent="WIyWlLk6GJQsqaUBKTNV-0" />
        <mxCell id="WIyWlLk6GJQsqaUBKTNV-2" value="" style="rounded=0;html=1;jettySize=auto;orthogonalLoop=1;fontSize=11;endArrow=block;endFill=0;endSize=8;strokeWidth=1;shadow=0;labelBackgroundColor=none;edgeStyle=orthogonalEdgeStyle;" parent="WIyWlLk6GJQsqaUBKTNV-1" source="WIyWlLk6GJQsqaUBKTNV-3" target="WIyWlLk6GJQsqaUBKTNV-6" edge="1">
          <mxGeometry relative="1" as="geometry" />
        </mxCell>
        <mxCell id="jRSXDuyl1bcwobNNjjf2-2" style="edgeStyle=orthogonalEdgeStyle;rounded=0;orthogonalLoop=1;jettySize=auto;html=1;exitX=0.5;exitY=1;exitDx=0;exitDy=0;entryX=0.5;entryY=0;entryDx=0;entryDy=0;" parent="WIyWlLk6GJQsqaUBKTNV-1" source="WIyWlLk6GJQsqaUBKTNV-3" target="jRSXDuyl1bcwobNNjjf2-1" edge="1">
          <mxGeometry relative="1" as="geometry" />
        </mxCell>
        <mxCell id="WIyWlLk6GJQsqaUBKTNV-3" value="게임 시작" style="rounded=1;whiteSpace=wrap;html=1;fontSize=12;glass=0;strokeWidth=1;shadow=0;" parent="WIyWlLk6GJQsqaUBKTNV-1" vertex="1">
          <mxGeometry x="-680" y="40" width="120" height="40" as="geometry" />
        </mxCell>
        <mxCell id="WIyWlLk6GJQsqaUBKTNV-5" value="No" style="edgeStyle=orthogonalEdgeStyle;rounded=0;html=1;jettySize=auto;orthogonalLoop=1;fontSize=11;endArrow=block;endFill=0;endSize=8;strokeWidth=1;shadow=0;labelBackgroundColor=none;" parent="WIyWlLk6GJQsqaUBKTNV-1" source="WIyWlLk6GJQsqaUBKTNV-6" target="WIyWlLk6GJQsqaUBKTNV-7" edge="1">
          <mxGeometry y="10" relative="1" as="geometry">
            <mxPoint as="offset" />
          </mxGeometry>
        </mxCell>
        <mxCell id="aL3FTDS-AIzDHc77hasr-3" style="edgeStyle=orthogonalEdgeStyle;rounded=0;orthogonalLoop=1;jettySize=auto;html=1;entryX=0.5;entryY=0;entryDx=0;entryDy=0;" parent="WIyWlLk6GJQsqaUBKTNV-1" source="WIyWlLk6GJQsqaUBKTNV-6" target="aL3FTDS-AIzDHc77hasr-2" edge="1">
          <mxGeometry relative="1" as="geometry" />
        </mxCell>
        <mxCell id="aL3FTDS-AIzDHc77hasr-4" value="Yes" style="edgeLabel;html=1;align=center;verticalAlign=middle;resizable=0;points=[];" parent="aL3FTDS-AIzDHc77hasr-3" vertex="1" connectable="0">
          <mxGeometry x="-0.2143" y="2" relative="1" as="geometry">
            <mxPoint as="offset" />
          </mxGeometry>
        </mxCell>
        <mxCell id="WIyWlLk6GJQsqaUBKTNV-6" value="입력을 받았습니까?" style="rhombus;whiteSpace=wrap;html=1;shadow=0;fontFamily=Helvetica;fontSize=12;align=center;strokeWidth=1;spacing=6;spacingTop=-4;" parent="WIyWlLk6GJQsqaUBKTNV-1" vertex="1">
          <mxGeometry x="-700" y="230" width="160" height="80" as="geometry" />
        </mxCell>
        <mxCell id="gPIk5buHiFtilTsmk9Is-119" style="edgeStyle=orthogonalEdgeStyle;rounded=0;orthogonalLoop=1;jettySize=auto;html=1;" parent="WIyWlLk6GJQsqaUBKTNV-1" source="WIyWlLk6GJQsqaUBKTNV-7" edge="1">
          <mxGeometry relative="1" as="geometry">
            <mxPoint x="-620" y="190" as="targetPoint" />
            <Array as="points">
              <mxPoint x="-408" y="190" />
            </Array>
          </mxGeometry>
        </mxCell>
        <mxCell id="WIyWlLk6GJQsqaUBKTNV-7" value="입력을 받을 때까지&lt;div&gt;대기&lt;/div&gt;" style="rounded=1;whiteSpace=wrap;html=1;fontSize=12;glass=0;strokeWidth=1;shadow=0;" parent="WIyWlLk6GJQsqaUBKTNV-1" vertex="1">
          <mxGeometry x="-468" y="250" width="120" height="40" as="geometry" />
        </mxCell>
        <mxCell id="jRSXDuyl1bcwobNNjjf2-13" style="edgeStyle=orthogonalEdgeStyle;rounded=0;orthogonalLoop=1;jettySize=auto;html=1;entryX=0;entryY=0.5;entryDx=0;entryDy=0;exitX=0;exitY=0.5;exitDx=0;exitDy=0;" parent="WIyWlLk6GJQsqaUBKTNV-1" source="aL3FTDS-AIzDHc77hasr-0" target="jRSXDuyl1bcwobNNjjf2-1" edge="1">
          <mxGeometry relative="1" as="geometry">
            <Array as="points">
              <mxPoint x="-790" y="720" />
              <mxPoint x="-790" y="130" />
            </Array>
            <mxPoint x="-670" y="460" as="sourcePoint" />
          </mxGeometry>
        </mxCell>
        <mxCell id="aL3FTDS-AIzDHc77hasr-1" value="No" style="edgeLabel;html=1;align=center;verticalAlign=middle;resizable=0;points=[];" parent="jRSXDuyl1bcwobNNjjf2-13" vertex="1" connectable="0">
          <mxGeometry x="-0.0094" y="-1" relative="1" as="geometry">
            <mxPoint as="offset" />
          </mxGeometry>
        </mxCell>
        <mxCell id="jRSXDuyl1bcwobNNjjf2-1" value="안내 출력" style="rounded=1;whiteSpace=wrap;html=1;fontSize=12;glass=0;strokeWidth=1;shadow=0;" parent="WIyWlLk6GJQsqaUBKTNV-1" vertex="1">
          <mxGeometry x="-680" y="110" width="120" height="40" as="geometry" />
        </mxCell>
        <mxCell id="aL3FTDS-AIzDHc77hasr-36" style="edgeStyle=orthogonalEdgeStyle;rounded=0;orthogonalLoop=1;jettySize=auto;html=1;entryX=0;entryY=0.5;entryDx=0;entryDy=0;" parent="WIyWlLk6GJQsqaUBKTNV-1" source="aL3FTDS-AIzDHc77hasr-0" target="aL3FTDS-AIzDHc77hasr-39" edge="1">
          <mxGeometry relative="1" as="geometry">
            <mxPoint x="-438" y="730" as="targetPoint" />
          </mxGeometry>
        </mxCell>
        <mxCell id="aL3FTDS-AIzDHc77hasr-37" value="No" style="edgeLabel;html=1;align=center;verticalAlign=middle;resizable=0;points=[];" parent="aL3FTDS-AIzDHc77hasr-36" vertex="1" connectable="0">
          <mxGeometry x="-0.1087" y="2" relative="1" as="geometry">
            <mxPoint as="offset" />
          </mxGeometry>
        </mxCell>
        <mxCell id="aL3FTDS-AIzDHc77hasr-40" style="edgeStyle=orthogonalEdgeStyle;rounded=0;orthogonalLoop=1;jettySize=auto;html=1;" parent="WIyWlLk6GJQsqaUBKTNV-1" source="aL3FTDS-AIzDHc77hasr-0" edge="1">
          <mxGeometry relative="1" as="geometry">
            <mxPoint x="-620" y="820" as="targetPoint" />
          </mxGeometry>
        </mxCell>
        <mxCell id="aL3FTDS-AIzDHc77hasr-41" value="Yes" style="edgeLabel;html=1;align=center;verticalAlign=middle;resizable=0;points=[];" parent="aL3FTDS-AIzDHc77hasr-40" vertex="1" connectable="0">
          <mxGeometry x="-0.0634" y="-2" relative="1" as="geometry">
            <mxPoint as="offset" />
          </mxGeometry>
        </mxCell>
        <mxCell id="aL3FTDS-AIzDHc77hasr-0" value="방향키를&lt;div&gt;입력 받았습니까?&lt;/div&gt;" style="rhombus;whiteSpace=wrap;html=1;shadow=0;fontFamily=Helvetica;fontSize=12;align=center;strokeWidth=1;spacing=6;spacingTop=-4;" parent="WIyWlLk6GJQsqaUBKTNV-1" vertex="1">
          <mxGeometry x="-700" y="680" width="160" height="80" as="geometry" />
        </mxCell>
        <mxCell id="aL3FTDS-AIzDHc77hasr-7" style="edgeStyle=orthogonalEdgeStyle;rounded=0;orthogonalLoop=1;jettySize=auto;html=1;entryX=0;entryY=0.5;entryDx=0;entryDy=0;" parent="WIyWlLk6GJQsqaUBKTNV-1" source="aL3FTDS-AIzDHc77hasr-2" target="aL3FTDS-AIzDHc77hasr-9" edge="1">
          <mxGeometry relative="1" as="geometry">
            <mxPoint x="-418" y="430" as="targetPoint" />
            <Array as="points">
              <mxPoint x="-468" y="420" />
            </Array>
          </mxGeometry>
        </mxCell>
        <mxCell id="aL3FTDS-AIzDHc77hasr-12" value="Yes" style="edgeLabel;html=1;align=center;verticalAlign=middle;resizable=0;points=[];" parent="aL3FTDS-AIzDHc77hasr-7" vertex="1" connectable="0">
          <mxGeometry x="-0.1024" y="-1" relative="1" as="geometry">
            <mxPoint y="-11" as="offset" />
          </mxGeometry>
        </mxCell>
        <mxCell id="aL3FTDS-AIzDHc77hasr-29" style="edgeStyle=orthogonalEdgeStyle;rounded=0;orthogonalLoop=1;jettySize=auto;html=1;" parent="WIyWlLk6GJQsqaUBKTNV-1" source="aL3FTDS-AIzDHc77hasr-2" target="aL3FTDS-AIzDHc77hasr-28" edge="1">
          <mxGeometry relative="1" as="geometry" />
        </mxCell>
        <mxCell id="aL3FTDS-AIzDHc77hasr-31" value="No" style="edgeLabel;html=1;align=center;verticalAlign=middle;resizable=0;points=[];" parent="aL3FTDS-AIzDHc77hasr-29" vertex="1" connectable="0">
          <mxGeometry x="-0.389" y="2" relative="1" as="geometry">
            <mxPoint as="offset" />
          </mxGeometry>
        </mxCell>
        <mxCell id="aL3FTDS-AIzDHc77hasr-2" value="M키를 입력했습니까?" style="rhombus;whiteSpace=wrap;html=1;shadow=0;fontFamily=Helvetica;fontSize=12;align=center;strokeWidth=1;spacing=6;spacingTop=-4;" parent="WIyWlLk6GJQsqaUBKTNV-1" vertex="1">
          <mxGeometry x="-700" y="380" width="160" height="80" as="geometry" />
        </mxCell>
        <mxCell id="aL3FTDS-AIzDHc77hasr-13" style="edgeStyle=orthogonalEdgeStyle;rounded=0;orthogonalLoop=1;jettySize=auto;html=1;entryX=0;entryY=0.5;entryDx=0;entryDy=0;" parent="WIyWlLk6GJQsqaUBKTNV-1" source="aL3FTDS-AIzDHc77hasr-9" target="aL3FTDS-AIzDHc77hasr-14" edge="1">
          <mxGeometry relative="1" as="geometry">
            <mxPoint x="-298" y="430" as="targetPoint" />
          </mxGeometry>
        </mxCell>
        <mxCell id="aL3FTDS-AIzDHc77hasr-9" value="맵 출력" style="rounded=1;whiteSpace=wrap;html=1;fontSize=12;glass=0;strokeWidth=1;shadow=0;" parent="WIyWlLk6GJQsqaUBKTNV-1" vertex="1">
          <mxGeometry x="-468" y="400" width="120" height="40" as="geometry" />
        </mxCell>
        <mxCell id="DjlPz1xxreDQ32t-NrGt-1" style="edgeStyle=orthogonalEdgeStyle;rounded=0;orthogonalLoop=1;jettySize=auto;html=1;entryX=0.5;entryY=0;entryDx=0;entryDy=0;" parent="WIyWlLk6GJQsqaUBKTNV-1" source="aL3FTDS-AIzDHc77hasr-14" target="DjlPz1xxreDQ32t-NrGt-2" edge="1">
          <mxGeometry relative="1" as="geometry">
            <mxPoint x="-208" y="500" as="targetPoint" />
          </mxGeometry>
        </mxCell>
        <mxCell id="DjlPz1xxreDQ32t-NrGt-3" value="Yes" style="edgeLabel;html=1;align=center;verticalAlign=middle;resizable=0;points=[];" parent="DjlPz1xxreDQ32t-NrGt-1" vertex="1" connectable="0">
          <mxGeometry x="-0.3961" relative="1" as="geometry">
            <mxPoint as="offset" />
          </mxGeometry>
        </mxCell>
        <mxCell id="aL3FTDS-AIzDHc77hasr-14" value="M키 입력을&lt;div&gt;취소했습니까?&lt;/div&gt;" style="rhombus;whiteSpace=wrap;html=1;shadow=0;fontFamily=Helvetica;fontSize=12;align=center;strokeWidth=1;spacing=6;spacingTop=-4;" parent="WIyWlLk6GJQsqaUBKTNV-1" vertex="1">
          <mxGeometry x="-288" y="380" width="160" height="80" as="geometry" />
        </mxCell>
        <mxCell id="aL3FTDS-AIzDHc77hasr-23" value="" style="endArrow=none;html=1;rounded=0;entryX=0.5;entryY=0;entryDx=0;entryDy=0;" parent="WIyWlLk6GJQsqaUBKTNV-1" target="aL3FTDS-AIzDHc77hasr-14" edge="1">
          <mxGeometry width="50" height="50" relative="1" as="geometry">
            <mxPoint x="-208" y="350" as="sourcePoint" />
            <mxPoint x="-308" y="410" as="targetPoint" />
          </mxGeometry>
        </mxCell>
        <mxCell id="aL3FTDS-AIzDHc77hasr-24" value="" style="endArrow=none;html=1;rounded=0;" parent="WIyWlLk6GJQsqaUBKTNV-1" edge="1">
          <mxGeometry width="50" height="50" relative="1" as="geometry">
            <mxPoint x="-408" y="350" as="sourcePoint" />
            <mxPoint x="-208" y="350" as="targetPoint" />
          </mxGeometry>
        </mxCell>
        <mxCell id="aL3FTDS-AIzDHc77hasr-27" value="No" style="edgeLabel;html=1;align=center;verticalAlign=middle;resizable=0;points=[];" parent="aL3FTDS-AIzDHc77hasr-24" vertex="1" connectable="0">
          <mxGeometry x="-0.0724" y="1" relative="1" as="geometry">
            <mxPoint as="offset" />
          </mxGeometry>
        </mxCell>
        <mxCell id="aL3FTDS-AIzDHc77hasr-25" value="" style="endArrow=classic;html=1;rounded=0;entryX=0.5;entryY=0;entryDx=0;entryDy=0;" parent="WIyWlLk6GJQsqaUBKTNV-1" target="aL3FTDS-AIzDHc77hasr-9" edge="1">
          <mxGeometry width="50" height="50" relative="1" as="geometry">
            <mxPoint x="-408" y="350" as="sourcePoint" />
            <mxPoint x="-388" y="380" as="targetPoint" />
          </mxGeometry>
        </mxCell>
        <mxCell id="aL3FTDS-AIzDHc77hasr-30" style="edgeStyle=orthogonalEdgeStyle;rounded=0;orthogonalLoop=1;jettySize=auto;html=1;entryX=0.5;entryY=0;entryDx=0;entryDy=0;" parent="WIyWlLk6GJQsqaUBKTNV-1" source="aL3FTDS-AIzDHc77hasr-28" target="aL3FTDS-AIzDHc77hasr-0" edge="1">
          <mxGeometry relative="1" as="geometry" />
        </mxCell>
        <mxCell id="aL3FTDS-AIzDHc77hasr-32" value="No" style="edgeLabel;html=1;align=center;verticalAlign=middle;resizable=0;points=[];" parent="aL3FTDS-AIzDHc77hasr-30" vertex="1" connectable="0">
          <mxGeometry x="-0.1189" relative="1" as="geometry">
            <mxPoint as="offset" />
          </mxGeometry>
        </mxCell>
        <mxCell id="aL3FTDS-AIzDHc77hasr-33" style="edgeStyle=orthogonalEdgeStyle;rounded=0;orthogonalLoop=1;jettySize=auto;html=1;exitX=1;exitY=0.5;exitDx=0;exitDy=0;" parent="WIyWlLk6GJQsqaUBKTNV-1" source="aL3FTDS-AIzDHc77hasr-28" edge="1">
          <mxGeometry relative="1" as="geometry">
            <mxPoint x="-378" y="70" as="targetPoint" />
            <mxPoint x="-518" y="574" as="sourcePoint" />
            <Array as="points">
              <mxPoint x="-48" y="564" />
              <mxPoint x="-48" y="70" />
            </Array>
          </mxGeometry>
        </mxCell>
        <mxCell id="aL3FTDS-AIzDHc77hasr-34" value="Yes" style="edgeLabel;html=1;align=center;verticalAlign=middle;resizable=0;points=[];" parent="aL3FTDS-AIzDHc77hasr-33" vertex="1" connectable="0">
          <mxGeometry x="-0.9363" y="1" relative="1" as="geometry">
            <mxPoint as="offset" />
          </mxGeometry>
        </mxCell>
        <mxCell id="aL3FTDS-AIzDHc77hasr-28" value="Q를 입력했습니까?" style="rhombus;whiteSpace=wrap;html=1;shadow=0;fontFamily=Helvetica;fontSize=12;align=center;strokeWidth=1;spacing=6;spacingTop=-4;" parent="WIyWlLk6GJQsqaUBKTNV-1" vertex="1">
          <mxGeometry x="-700" y="524" width="160" height="80" as="geometry" />
        </mxCell>
        <mxCell id="aL3FTDS-AIzDHc77hasr-39" value="다시 입력 알림 출력" style="rounded=1;whiteSpace=wrap;html=1;fontSize=12;glass=0;strokeWidth=1;shadow=0;" parent="WIyWlLk6GJQsqaUBKTNV-1" vertex="1">
          <mxGeometry x="-438" y="700" width="120" height="40" as="geometry" />
        </mxCell>
        <mxCell id="aL3FTDS-AIzDHc77hasr-45" style="edgeStyle=orthogonalEdgeStyle;rounded=0;orthogonalLoop=1;jettySize=auto;html=1;" parent="WIyWlLk6GJQsqaUBKTNV-1" source="aL3FTDS-AIzDHc77hasr-42" edge="1">
          <mxGeometry relative="1" as="geometry">
            <mxPoint x="-620" y="930" as="targetPoint" />
          </mxGeometry>
        </mxCell>
        <mxCell id="aL3FTDS-AIzDHc77hasr-42" value="방 이동" style="rounded=1;whiteSpace=wrap;html=1;fontSize=12;glass=0;strokeWidth=1;shadow=0;" parent="WIyWlLk6GJQsqaUBKTNV-1" vertex="1">
          <mxGeometry x="-680" y="820" width="120" height="40" as="geometry" />
        </mxCell>
        <mxCell id="aL3FTDS-AIzDHc77hasr-47" value="게임 종료" style="rounded=1;whiteSpace=wrap;html=1;fontSize=12;glass=0;strokeWidth=1;shadow=0;" parent="WIyWlLk6GJQsqaUBKTNV-1" vertex="1">
          <mxGeometry x="-498" y="50" width="120" height="40" as="geometry" />
        </mxCell>
        <mxCell id="0DstGTcdA44AyIen8qcm-69" style="edgeStyle=orthogonalEdgeStyle;rounded=0;orthogonalLoop=1;jettySize=auto;html=1;" parent="WIyWlLk6GJQsqaUBKTNV-1" source="0DstGTcdA44AyIen8qcm-68" edge="1">
          <mxGeometry relative="1" as="geometry">
            <mxPoint x="118.90999999999985" y="180" as="targetPoint" />
          </mxGeometry>
        </mxCell>
        <mxCell id="0DstGTcdA44AyIen8qcm-68" value="배틀 이벤트&lt;div&gt;시작&lt;/div&gt;" style="ellipse;whiteSpace=wrap;html=1;aspect=fixed;" parent="WIyWlLk6GJQsqaUBKTNV-1" vertex="1">
          <mxGeometry x="78.90999999999985" y="60" width="80" height="80" as="geometry" />
        </mxCell>
        <mxCell id="0DstGTcdA44AyIen8qcm-71" style="edgeStyle=orthogonalEdgeStyle;rounded=0;orthogonalLoop=1;jettySize=auto;html=1;" parent="WIyWlLk6GJQsqaUBKTNV-1" source="0DstGTcdA44AyIen8qcm-70" edge="1">
          <mxGeometry relative="1" as="geometry">
            <mxPoint x="118.90999999999985" y="260" as="targetPoint" />
          </mxGeometry>
        </mxCell>
        <mxCell id="0DstGTcdA44AyIen8qcm-70" value="전투 시작&lt;div&gt;안내문 출력&lt;/div&gt;" style="rounded=1;whiteSpace=wrap;html=1;fontSize=12;glass=0;strokeWidth=1;shadow=0;" parent="WIyWlLk6GJQsqaUBKTNV-1" vertex="1">
          <mxGeometry x="58.909999999999854" y="180" width="120" height="40" as="geometry" />
        </mxCell>
        <mxCell id="0DstGTcdA44AyIen8qcm-73" style="edgeStyle=orthogonalEdgeStyle;rounded=0;orthogonalLoop=1;jettySize=auto;html=1;" parent="WIyWlLk6GJQsqaUBKTNV-1" source="0DstGTcdA44AyIen8qcm-72" edge="1">
          <mxGeometry relative="1" as="geometry">
            <mxPoint x="250" y="300" as="targetPoint" />
          </mxGeometry>
        </mxCell>
        <mxCell id="0DstGTcdA44AyIen8qcm-74" value="Yes" style="edgeLabel;html=1;align=center;verticalAlign=middle;resizable=0;points=[];" parent="0DstGTcdA44AyIen8qcm-73" vertex="1" connectable="0">
          <mxGeometry x="-0.1361" y="-1" relative="1" as="geometry">
            <mxPoint as="offset" />
          </mxGeometry>
        </mxCell>
        <mxCell id="0DstGTcdA44AyIen8qcm-85" style="edgeStyle=orthogonalEdgeStyle;rounded=0;orthogonalLoop=1;jettySize=auto;html=1;entryX=0.5;entryY=0;entryDx=0;entryDy=0;" parent="WIyWlLk6GJQsqaUBKTNV-1" source="0DstGTcdA44AyIen8qcm-72" target="0DstGTcdA44AyIen8qcm-87" edge="1">
          <mxGeometry relative="1" as="geometry">
            <mxPoint x="118.90999999999985" y="380" as="targetPoint" />
          </mxGeometry>
        </mxCell>
        <mxCell id="0DstGTcdA44AyIen8qcm-86" value="No" style="edgeLabel;html=1;align=center;verticalAlign=middle;resizable=0;points=[];" parent="0DstGTcdA44AyIen8qcm-85" vertex="1" connectable="0">
          <mxGeometry x="-0.1961" relative="1" as="geometry">
            <mxPoint y="10" as="offset" />
          </mxGeometry>
        </mxCell>
        <mxCell id="0DstGTcdA44AyIen8qcm-72" value="소모 아이템을&lt;div&gt;소지하고 있는가?&lt;/div&gt;" style="rhombus;whiteSpace=wrap;html=1;shadow=0;fontFamily=Helvetica;fontSize=12;align=center;strokeWidth=1;spacing=6;spacingTop=-4;" parent="WIyWlLk6GJQsqaUBKTNV-1" vertex="1">
          <mxGeometry x="38.909999999999854" y="260" width="160" height="80" as="geometry" />
        </mxCell>
        <mxCell id="0DstGTcdA44AyIen8qcm-76" style="edgeStyle=orthogonalEdgeStyle;rounded=0;orthogonalLoop=1;jettySize=auto;html=1;" parent="WIyWlLk6GJQsqaUBKTNV-1" source="0DstGTcdA44AyIen8qcm-75" edge="1">
          <mxGeometry relative="1" as="geometry">
            <mxPoint x="619.9999999999998" y="300" as="targetPoint" />
          </mxGeometry>
        </mxCell>
        <mxCell id="0DstGTcdA44AyIen8qcm-81" value="Yes" style="edgeLabel;html=1;align=center;verticalAlign=middle;resizable=0;points=[];" parent="0DstGTcdA44AyIen8qcm-76" vertex="1" connectable="0">
          <mxGeometry x="-0.0093" y="2" relative="1" as="geometry">
            <mxPoint x="-1" y="-1" as="offset" />
          </mxGeometry>
        </mxCell>
        <mxCell id="0DstGTcdA44AyIen8qcm-91" style="edgeStyle=orthogonalEdgeStyle;rounded=0;orthogonalLoop=1;jettySize=auto;html=1;" parent="WIyWlLk6GJQsqaUBKTNV-1" source="0DstGTcdA44AyIen8qcm-75" edge="1">
          <mxGeometry relative="1" as="geometry">
            <mxPoint x="180" y="420" as="targetPoint" />
            <Array as="points">
              <mxPoint x="339" y="420" />
              <mxPoint x="180" y="420" />
            </Array>
          </mxGeometry>
        </mxCell>
        <mxCell id="0DstGTcdA44AyIen8qcm-92" value="No" style="edgeLabel;html=1;align=center;verticalAlign=middle;resizable=0;points=[];" parent="0DstGTcdA44AyIen8qcm-91" vertex="1" connectable="0">
          <mxGeometry x="-0.7631" y="-1" relative="1" as="geometry">
            <mxPoint as="offset" />
          </mxGeometry>
        </mxCell>
        <mxCell id="0DstGTcdA44AyIen8qcm-75" value="아이템을&lt;div&gt;사용하였는가?&lt;/div&gt;" style="rhombus;whiteSpace=wrap;html=1;shadow=0;fontFamily=Helvetica;fontSize=12;align=center;strokeWidth=1;spacing=6;spacingTop=-4;" parent="WIyWlLk6GJQsqaUBKTNV-1" vertex="1">
          <mxGeometry x="409.9999999999998" y="260" width="160" height="80" as="geometry" />
        </mxCell>
        <mxCell id="0DstGTcdA44AyIen8qcm-78" style="edgeStyle=orthogonalEdgeStyle;rounded=0;orthogonalLoop=1;jettySize=auto;html=1;" parent="WIyWlLk6GJQsqaUBKTNV-1" source="0DstGTcdA44AyIen8qcm-77" edge="1">
          <mxGeometry relative="1" as="geometry">
            <mxPoint x="699.9999999999998" y="380" as="targetPoint" />
          </mxGeometry>
        </mxCell>
        <mxCell id="0DstGTcdA44AyIen8qcm-80" value="No" style="edgeLabel;html=1;align=center;verticalAlign=middle;resizable=0;points=[];" parent="0DstGTcdA44AyIen8qcm-78" vertex="1" connectable="0">
          <mxGeometry x="-0.3112" relative="1" as="geometry">
            <mxPoint as="offset" />
          </mxGeometry>
        </mxCell>
        <mxCell id="0DstGTcdA44AyIen8qcm-82" style="edgeStyle=orthogonalEdgeStyle;rounded=0;orthogonalLoop=1;jettySize=auto;html=1;" parent="WIyWlLk6GJQsqaUBKTNV-1" source="0DstGTcdA44AyIen8qcm-77" edge="1">
          <mxGeometry relative="1" as="geometry">
            <mxPoint x="822.9999999999998" y="300" as="targetPoint" />
          </mxGeometry>
        </mxCell>
        <mxCell id="0DstGTcdA44AyIen8qcm-83" value="Yes" style="edgeLabel;html=1;align=center;verticalAlign=middle;resizable=0;points=[];" parent="0DstGTcdA44AyIen8qcm-82" vertex="1" connectable="0">
          <mxGeometry x="-0.0456" y="1" relative="1" as="geometry">
            <mxPoint as="offset" />
          </mxGeometry>
        </mxCell>
        <mxCell id="0DstGTcdA44AyIen8qcm-77" value="스탯 증가&lt;div&gt;아이템인가?&lt;/div&gt;" style="rhombus;whiteSpace=wrap;html=1;shadow=0;fontFamily=Helvetica;fontSize=12;align=center;strokeWidth=1;spacing=6;spacingTop=-4;" parent="WIyWlLk6GJQsqaUBKTNV-1" vertex="1">
          <mxGeometry x="619.9999999999998" y="260" width="160" height="80" as="geometry" />
        </mxCell>
        <mxCell id="0DstGTcdA44AyIen8qcm-79" value="적에게&lt;div&gt;피해를 입힘&lt;/div&gt;" style="rounded=1;whiteSpace=wrap;html=1;fontSize=12;glass=0;strokeWidth=1;shadow=0;" parent="WIyWlLk6GJQsqaUBKTNV-1" vertex="1">
          <mxGeometry x="639.9999999999998" y="380" width="120" height="40" as="geometry" />
        </mxCell>
        <mxCell id="gPIk5buHiFtilTsmk9Is-23" style="edgeStyle=orthogonalEdgeStyle;rounded=0;orthogonalLoop=1;jettySize=auto;html=1;" parent="WIyWlLk6GJQsqaUBKTNV-1" source="0DstGTcdA44AyIen8qcm-84" edge="1">
          <mxGeometry relative="1" as="geometry">
            <mxPoint x="882.9999999999998" y="380" as="targetPoint" />
          </mxGeometry>
        </mxCell>
        <mxCell id="0DstGTcdA44AyIen8qcm-84" value="플레이어의&lt;div&gt;스탯 변경&lt;/div&gt;" style="rounded=1;whiteSpace=wrap;html=1;fontSize=12;glass=0;strokeWidth=1;shadow=0;" parent="WIyWlLk6GJQsqaUBKTNV-1" vertex="1">
          <mxGeometry x="822.9999999999998" y="280" width="120" height="40" as="geometry" />
        </mxCell>
        <mxCell id="0DstGTcdA44AyIen8qcm-88" style="edgeStyle=orthogonalEdgeStyle;rounded=0;orthogonalLoop=1;jettySize=auto;html=1;" parent="WIyWlLk6GJQsqaUBKTNV-1" source="0DstGTcdA44AyIen8qcm-87" edge="1">
          <mxGeometry relative="1" as="geometry">
            <mxPoint x="118.90999999999985" y="493.64" as="targetPoint" />
          </mxGeometry>
        </mxCell>
        <mxCell id="0DstGTcdA44AyIen8qcm-87" value="적을 공격" style="rounded=1;whiteSpace=wrap;html=1;fontSize=12;glass=0;strokeWidth=1;shadow=0;" parent="WIyWlLk6GJQsqaUBKTNV-1" vertex="1">
          <mxGeometry x="58.909999999999854" y="413.64" width="120" height="40" as="geometry" />
        </mxCell>
        <mxCell id="0DstGTcdA44AyIen8qcm-93" style="edgeStyle=orthogonalEdgeStyle;rounded=0;orthogonalLoop=1;jettySize=auto;html=1;" parent="WIyWlLk6GJQsqaUBKTNV-1" source="0DstGTcdA44AyIen8qcm-89" edge="1">
          <mxGeometry relative="1" as="geometry">
            <mxPoint x="119" y="573.64" as="targetPoint" />
          </mxGeometry>
        </mxCell>
        <mxCell id="0DstGTcdA44AyIen8qcm-89" value="적의 이름,&lt;div&gt;받은 피해량,&lt;/div&gt;&lt;div&gt;&lt;span style=&quot;background-color: initial;&quot;&gt;남은 체력 표시&lt;/span&gt;&lt;/div&gt;" style="rounded=1;whiteSpace=wrap;html=1;fontSize=12;glass=0;strokeWidth=1;shadow=0;" parent="WIyWlLk6GJQsqaUBKTNV-1" vertex="1">
          <mxGeometry x="58.909999999999854" y="493.64" width="120" height="40" as="geometry" />
        </mxCell>
        <mxCell id="wrmnMDkRVYvBuPpoKrWq-110" style="edgeStyle=orthogonalEdgeStyle;rounded=0;orthogonalLoop=1;jettySize=auto;html=1;" parent="WIyWlLk6GJQsqaUBKTNV-1" edge="1">
          <mxGeometry relative="1" as="geometry">
            <mxPoint x="118.90999999999985" y="826" as="targetPoint" />
            <mxPoint x="118.90000000000009" y="779.9999999999999" as="sourcePoint" />
          </mxGeometry>
        </mxCell>
        <mxCell id="wrmnMDkRVYvBuPpoKrWq-109" value="랜덤 이벤트&lt;div&gt;발생&lt;/div&gt;" style="ellipse;whiteSpace=wrap;html=1;aspect=fixed;" parent="WIyWlLk6GJQsqaUBKTNV-1" vertex="1">
          <mxGeometry x="-660" y="930" width="80" height="80" as="geometry" />
        </mxCell>
        <mxCell id="wrmnMDkRVYvBuPpoKrWq-114" style="edgeStyle=orthogonalEdgeStyle;rounded=0;orthogonalLoop=1;jettySize=auto;html=1;entryX=0.5;entryY=0;entryDx=0;entryDy=0;" parent="WIyWlLk6GJQsqaUBKTNV-1" source="wrmnMDkRVYvBuPpoKrWq-111" target="wrmnMDkRVYvBuPpoKrWq-113" edge="1">
          <mxGeometry relative="1" as="geometry" />
        </mxCell>
        <mxCell id="wrmnMDkRVYvBuPpoKrWq-111" value="플레이어가&amp;nbsp;&lt;div&gt;데미지를&amp;nbsp;&lt;span style=&quot;background-color: initial;&quot;&gt;받음&lt;/span&gt;&lt;/div&gt;" style="rounded=1;whiteSpace=wrap;html=1;fontSize=12;glass=0;strokeWidth=1;shadow=0;" parent="WIyWlLk6GJQsqaUBKTNV-1" vertex="1">
          <mxGeometry x="58.909999999999854" y="826" width="120" height="40" as="geometry" />
        </mxCell>
        <mxCell id="wrmnMDkRVYvBuPpoKrWq-115" style="edgeStyle=orthogonalEdgeStyle;rounded=0;orthogonalLoop=1;jettySize=auto;html=1;entryX=0;entryY=0.5;entryDx=0;entryDy=0;" parent="WIyWlLk6GJQsqaUBKTNV-1" source="wrmnMDkRVYvBuPpoKrWq-113" target="0DstGTcdA44AyIen8qcm-72" edge="1">
          <mxGeometry relative="1" as="geometry">
            <mxPoint x="8.909999999999854" y="290" as="targetPoint" />
            <Array as="points">
              <mxPoint x="10" y="926" />
              <mxPoint x="10" y="300" />
            </Array>
          </mxGeometry>
        </mxCell>
        <mxCell id="DjlPz1xxreDQ32t-NrGt-45" style="edgeStyle=orthogonalEdgeStyle;rounded=0;orthogonalLoop=1;jettySize=auto;html=1;" parent="WIyWlLk6GJQsqaUBKTNV-1" source="wrmnMDkRVYvBuPpoKrWq-113" target="DjlPz1xxreDQ32t-NrGt-47" edge="1">
          <mxGeometry relative="1" as="geometry">
            <mxPoint x="240" y="892.36" as="targetPoint" />
          </mxGeometry>
        </mxCell>
        <mxCell id="wrmnMDkRVYvBuPpoKrWq-113" value="플레이어가 받은&amp;nbsp;&lt;div&gt;피해량과 남은체력&lt;/div&gt;&lt;div&gt;표시&lt;/div&gt;" style="rounded=1;whiteSpace=wrap;html=1;fontSize=12;glass=0;strokeWidth=1;shadow=0;" parent="WIyWlLk6GJQsqaUBKTNV-1" vertex="1">
          <mxGeometry x="58.909999999999854" y="906" width="120" height="40" as="geometry" />
        </mxCell>
        <mxCell id="DjlPz1xxreDQ32t-NrGt-2" value="기존 진행 중이던&lt;div&gt;텍스트 출력&lt;/div&gt;" style="rounded=1;whiteSpace=wrap;html=1;fontSize=12;glass=0;strokeWidth=1;shadow=0;" parent="WIyWlLk6GJQsqaUBKTNV-1" vertex="1">
          <mxGeometry x="-268" y="504" width="120" height="40" as="geometry" />
        </mxCell>
        <mxCell id="DjlPz1xxreDQ32t-NrGt-48" style="edgeStyle=orthogonalEdgeStyle;rounded=0;orthogonalLoop=1;jettySize=auto;html=1;entryX=0;entryY=0.5;entryDx=0;entryDy=0;" parent="WIyWlLk6GJQsqaUBKTNV-1" source="DjlPz1xxreDQ32t-NrGt-47" target="DjlPz1xxreDQ32t-NrGt-49" edge="1">
          <mxGeometry relative="1" as="geometry">
            <mxPoint x="581.0900000000001" y="892.36" as="targetPoint" />
          </mxGeometry>
        </mxCell>
        <mxCell id="DjlPz1xxreDQ32t-NrGt-50" value="Yes" style="edgeLabel;html=1;align=center;verticalAlign=middle;resizable=0;points=[];" parent="DjlPz1xxreDQ32t-NrGt-48" vertex="1" connectable="0">
          <mxGeometry x="-0.0082" y="1" relative="1" as="geometry">
            <mxPoint x="-1" y="-1" as="offset" />
          </mxGeometry>
        </mxCell>
        <mxCell id="DjlPz1xxreDQ32t-NrGt-58" style="edgeStyle=orthogonalEdgeStyle;rounded=0;orthogonalLoop=1;jettySize=auto;html=1;" parent="WIyWlLk6GJQsqaUBKTNV-1" source="DjlPz1xxreDQ32t-NrGt-47" edge="1">
          <mxGeometry relative="1" as="geometry">
            <mxPoint x="180" y="440" as="targetPoint" />
            <Array as="points">
              <mxPoint x="450" y="440" />
            </Array>
          </mxGeometry>
        </mxCell>
        <mxCell id="DjlPz1xxreDQ32t-NrGt-59" value="No" style="edgeLabel;html=1;align=center;verticalAlign=middle;resizable=0;points=[];" parent="DjlPz1xxreDQ32t-NrGt-58" vertex="1" connectable="0">
          <mxGeometry x="-0.8324" y="2" relative="1" as="geometry">
            <mxPoint as="offset" />
          </mxGeometry>
        </mxCell>
        <mxCell id="DjlPz1xxreDQ32t-NrGt-47" value="플레이어 체력이&lt;div&gt;0이 되었습니까?&lt;/div&gt;" style="rhombus;whiteSpace=wrap;html=1;shadow=0;fontFamily=Helvetica;fontSize=12;align=center;strokeWidth=1;spacing=6;spacingTop=-4;" parent="WIyWlLk6GJQsqaUBKTNV-1" vertex="1">
          <mxGeometry x="369.9999999999998" y="886" width="160" height="80" as="geometry" />
        </mxCell>
        <mxCell id="DjlPz1xxreDQ32t-NrGt-49" value="게임 종료" style="rounded=1;whiteSpace=wrap;html=1;fontSize=12;glass=0;strokeWidth=1;shadow=0;" parent="WIyWlLk6GJQsqaUBKTNV-1" vertex="1">
          <mxGeometry x="581.0900000000001" y="906" width="120" height="40" as="geometry" />
        </mxCell>
        <mxCell id="DjlPz1xxreDQ32t-NrGt-53" style="edgeStyle=orthogonalEdgeStyle;rounded=0;orthogonalLoop=1;jettySize=auto;html=1;entryX=0.5;entryY=0;entryDx=0;entryDy=0;" parent="WIyWlLk6GJQsqaUBKTNV-1" source="DjlPz1xxreDQ32t-NrGt-52" edge="1">
          <mxGeometry relative="1" as="geometry">
            <mxPoint x="118.90999999999985" y="700.6399999999999" as="targetPoint" />
          </mxGeometry>
        </mxCell>
        <mxCell id="DjlPz1xxreDQ32t-NrGt-54" value="No" style="edgeLabel;html=1;align=center;verticalAlign=middle;resizable=0;points=[];" parent="DjlPz1xxreDQ32t-NrGt-53" vertex="1" connectable="0">
          <mxGeometry x="-0.2778" y="2" relative="1" as="geometry">
            <mxPoint as="offset" />
          </mxGeometry>
        </mxCell>
        <mxCell id="DjlPz1xxreDQ32t-NrGt-55" style="edgeStyle=orthogonalEdgeStyle;rounded=0;orthogonalLoop=1;jettySize=auto;html=1;entryX=0;entryY=0.5;entryDx=0;entryDy=0;" parent="WIyWlLk6GJQsqaUBKTNV-1" source="DjlPz1xxreDQ32t-NrGt-52" target="DjlPz1xxreDQ32t-NrGt-57" edge="1">
          <mxGeometry relative="1" as="geometry">
            <mxPoint x="260" y="580" as="targetPoint" />
          </mxGeometry>
        </mxCell>
        <mxCell id="DjlPz1xxreDQ32t-NrGt-56" value="Yes" style="edgeLabel;html=1;align=center;verticalAlign=middle;resizable=0;points=[];" parent="DjlPz1xxreDQ32t-NrGt-55" vertex="1" connectable="0">
          <mxGeometry x="-0.2764" y="-2" relative="1" as="geometry">
            <mxPoint as="offset" />
          </mxGeometry>
        </mxCell>
        <mxCell id="DjlPz1xxreDQ32t-NrGt-52" value="적의 체력이 0인가?" style="rhombus;whiteSpace=wrap;html=1;shadow=0;fontFamily=Helvetica;fontSize=12;align=center;strokeWidth=1;spacing=6;spacingTop=-4;" parent="WIyWlLk6GJQsqaUBKTNV-1" vertex="1">
          <mxGeometry x="38.909999999999854" y="573.64" width="160" height="80" as="geometry" />
        </mxCell>
        <mxCell id="DjlPz1xxreDQ32t-NrGt-57" value="전투 종료 안내" style="rounded=1;whiteSpace=wrap;html=1;fontSize=12;glass=0;strokeWidth=1;shadow=0;" parent="WIyWlLk6GJQsqaUBKTNV-1" vertex="1">
          <mxGeometry x="258.90999999999985" y="594" width="120" height="40" as="geometry" />
        </mxCell>
        <mxCell id="gPIk5buHiFtilTsmk9Is-5" style="edgeStyle=orthogonalEdgeStyle;rounded=0;orthogonalLoop=1;jettySize=auto;html=1;" parent="WIyWlLk6GJQsqaUBKTNV-1" source="gPIk5buHiFtilTsmk9Is-4" edge="1">
          <mxGeometry relative="1" as="geometry">
            <mxPoint x="240" y="1360" as="targetPoint" />
          </mxGeometry>
        </mxCell>
        <mxCell id="gPIk5buHiFtilTsmk9Is-4" value="랜덤 이벤트&lt;div&gt;발생&lt;/div&gt;" style="ellipse;whiteSpace=wrap;html=1;aspect=fixed;" parent="WIyWlLk6GJQsqaUBKTNV-1" vertex="1">
          <mxGeometry x="199.65" y="1200" width="80" height="80" as="geometry" />
        </mxCell>
        <mxCell id="gPIk5buHiFtilTsmk9Is-7" value="" style="endArrow=classic;html=1;rounded=0;entryX=0.5;entryY=0;entryDx=0;entryDy=0;" parent="WIyWlLk6GJQsqaUBKTNV-1" target="gPIk5buHiFtilTsmk9Is-88" edge="1">
          <mxGeometry width="50" height="50" relative="1" as="geometry">
            <mxPoint x="240" y="1320" as="sourcePoint" />
            <mxPoint x="-160" y="1360" as="targetPoint" />
            <Array as="points">
              <mxPoint x="-60" y="1320" />
            </Array>
          </mxGeometry>
        </mxCell>
        <mxCell id="gPIk5buHiFtilTsmk9Is-8" value="" style="endArrow=classic;html=1;rounded=0;" parent="WIyWlLk6GJQsqaUBKTNV-1" edge="1">
          <mxGeometry width="50" height="50" relative="1" as="geometry">
            <mxPoint x="240" y="1320" as="sourcePoint" />
            <mxPoint x="720" y="1360" as="targetPoint" />
            <Array as="points">
              <mxPoint x="720" y="1320" />
            </Array>
          </mxGeometry>
        </mxCell>
        <mxCell id="gPIk5buHiFtilTsmk9Is-11" style="edgeStyle=orthogonalEdgeStyle;rounded=0;orthogonalLoop=1;jettySize=auto;html=1;entryX=0.5;entryY=0;entryDx=0;entryDy=0;" parent="WIyWlLk6GJQsqaUBKTNV-1" target="gPIk5buHiFtilTsmk9Is-10" edge="1">
          <mxGeometry relative="1" as="geometry">
            <mxPoint x="-60" y="1400" as="sourcePoint" />
          </mxGeometry>
        </mxCell>
        <mxCell id="gPIk5buHiFtilTsmk9Is-10" value="배틀 이벤트&lt;div&gt;시작&lt;/div&gt;" style="ellipse;whiteSpace=wrap;html=1;aspect=fixed;" parent="WIyWlLk6GJQsqaUBKTNV-1" vertex="1">
          <mxGeometry x="-100.00000000000011" y="1440" width="80" height="80" as="geometry" />
        </mxCell>
        <mxCell id="gPIk5buHiFtilTsmk9Is-133" style="edgeStyle=orthogonalEdgeStyle;rounded=0;orthogonalLoop=1;jettySize=auto;html=1;" parent="WIyWlLk6GJQsqaUBKTNV-1" source="gPIk5buHiFtilTsmk9Is-18" edge="1">
          <mxGeometry relative="1" as="geometry">
            <mxPoint x="240" y="1680" as="targetPoint" />
            <Array as="points">
              <mxPoint x="160" y="1640" />
              <mxPoint x="240" y="1640" />
            </Array>
          </mxGeometry>
        </mxCell>
        <mxCell id="gPIk5buHiFtilTsmk9Is-18" value="인벤토리에 저장" style="rounded=1;whiteSpace=wrap;html=1;fontSize=12;glass=0;strokeWidth=1;shadow=0;" parent="WIyWlLk6GJQsqaUBKTNV-1" vertex="1">
          <mxGeometry x="99.64999999999998" y="1560" width="120" height="40" as="geometry" />
        </mxCell>
        <mxCell id="gPIk5buHiFtilTsmk9Is-24" value="적이&lt;div&gt;플레이어를&lt;/div&gt;&lt;div&gt;공격&lt;/div&gt;" style="ellipse;whiteSpace=wrap;html=1;aspect=fixed;" parent="WIyWlLk6GJQsqaUBKTNV-1" vertex="1">
          <mxGeometry x="842.9999999999998" y="380" width="80" height="80" as="geometry" />
        </mxCell>
        <mxCell id="gPIk5buHiFtilTsmk9Is-25" value="적이&lt;div&gt;플레이어를&lt;/div&gt;&lt;div&gt;공격&lt;/div&gt;" style="ellipse;whiteSpace=wrap;html=1;aspect=fixed;" parent="WIyWlLk6GJQsqaUBKTNV-1" vertex="1">
          <mxGeometry x="78.90999999999985" y="700" width="80" height="80" as="geometry" />
        </mxCell>
        <mxCell id="gPIk5buHiFtilTsmk9Is-71" value="장착 후&lt;div&gt;스탯 변경&lt;/div&gt;" style="rounded=1;whiteSpace=wrap;html=1;fontSize=12;glass=0;strokeWidth=1;shadow=0;" parent="WIyWlLk6GJQsqaUBKTNV-1" vertex="1">
          <mxGeometry x="259.65" y="1560" width="120" height="40" as="geometry" />
        </mxCell>
        <mxCell id="gPIk5buHiFtilTsmk9Is-78" style="edgeStyle=orthogonalEdgeStyle;rounded=0;orthogonalLoop=1;jettySize=auto;html=1;entryX=0;entryY=0.5;entryDx=0;entryDy=0;" parent="WIyWlLk6GJQsqaUBKTNV-1" source="gPIk5buHiFtilTsmk9Is-77" target="0DstGTcdA44AyIen8qcm-75" edge="1">
          <mxGeometry relative="1" as="geometry" />
        </mxCell>
        <mxCell id="gPIk5buHiFtilTsmk9Is-77" value="아이템을 사용하는지&lt;div&gt;묻는 안내 출력&lt;/div&gt;" style="rounded=1;whiteSpace=wrap;html=1;fontSize=12;glass=0;strokeWidth=1;shadow=0;" parent="WIyWlLk6GJQsqaUBKTNV-1" vertex="1">
          <mxGeometry x="249.99999999999977" y="280" width="120" height="40" as="geometry" />
        </mxCell>
        <mxCell id="gPIk5buHiFtilTsmk9Is-80" value="" style="endArrow=none;html=1;rounded=0;entryX=0.5;entryY=1;entryDx=0;entryDy=0;" parent="WIyWlLk6GJQsqaUBKTNV-1" edge="1">
          <mxGeometry width="50" height="50" relative="1" as="geometry">
            <mxPoint x="239.65" y="1440" as="sourcePoint" />
            <mxPoint x="239.3000000000001" y="1400" as="targetPoint" />
          </mxGeometry>
        </mxCell>
        <mxCell id="gPIk5buHiFtilTsmk9Is-86" value="Yes" style="edgeLabel;html=1;align=center;verticalAlign=middle;resizable=0;points=[];" parent="gPIk5buHiFtilTsmk9Is-80" vertex="1" connectable="0">
          <mxGeometry x="0.1943" y="-1" relative="1" as="geometry">
            <mxPoint as="offset" />
          </mxGeometry>
        </mxCell>
        <mxCell id="gPIk5buHiFtilTsmk9Is-81" value="" style="endArrow=none;html=1;rounded=0;" parent="WIyWlLk6GJQsqaUBKTNV-1" edge="1">
          <mxGeometry width="50" height="50" relative="1" as="geometry">
            <mxPoint x="159.65" y="1440" as="sourcePoint" />
            <mxPoint x="319.65" y="1440" as="targetPoint" />
          </mxGeometry>
        </mxCell>
        <mxCell id="gPIk5buHiFtilTsmk9Is-82" value="" style="endArrow=classic;html=1;rounded=0;" parent="WIyWlLk6GJQsqaUBKTNV-1" edge="1">
          <mxGeometry width="50" height="50" relative="1" as="geometry">
            <mxPoint x="159.65" y="1440" as="sourcePoint" />
            <mxPoint x="159.65" y="1480" as="targetPoint" />
          </mxGeometry>
        </mxCell>
        <mxCell id="gPIk5buHiFtilTsmk9Is-83" value="" style="endArrow=classic;html=1;rounded=0;" parent="WIyWlLk6GJQsqaUBKTNV-1" edge="1">
          <mxGeometry width="50" height="50" relative="1" as="geometry">
            <mxPoint x="319.65" y="1440" as="sourcePoint" />
            <mxPoint x="319.65" y="1480" as="targetPoint" />
          </mxGeometry>
        </mxCell>
        <mxCell id="gPIk5buHiFtilTsmk9Is-84" value="아이템이&lt;div&gt;소모품인 경우&lt;/div&gt;" style="rounded=1;whiteSpace=wrap;html=1;fontSize=12;glass=0;strokeWidth=1;shadow=0;" parent="WIyWlLk6GJQsqaUBKTNV-1" vertex="1">
          <mxGeometry x="99.65" y="1480" width="120" height="40" as="geometry" />
        </mxCell>
        <mxCell id="gPIk5buHiFtilTsmk9Is-90" style="edgeStyle=orthogonalEdgeStyle;rounded=0;orthogonalLoop=1;jettySize=auto;html=1;entryX=0.5;entryY=0;entryDx=0;entryDy=0;" parent="WIyWlLk6GJQsqaUBKTNV-1" source="gPIk5buHiFtilTsmk9Is-85" target="gPIk5buHiFtilTsmk9Is-71" edge="1">
          <mxGeometry relative="1" as="geometry" />
        </mxCell>
        <mxCell id="gPIk5buHiFtilTsmk9Is-85" value="아이템이&lt;div&gt;장비인 경우&lt;/div&gt;" style="rounded=1;whiteSpace=wrap;html=1;fontSize=12;glass=0;strokeWidth=1;shadow=0;" parent="WIyWlLk6GJQsqaUBKTNV-1" vertex="1">
          <mxGeometry x="259.65" y="1480" width="120" height="40" as="geometry" />
        </mxCell>
        <mxCell id="gPIk5buHiFtilTsmk9Is-87" value="아이템 발견" style="rounded=1;whiteSpace=wrap;html=1;fontSize=12;glass=0;strokeWidth=1;shadow=0;" parent="WIyWlLk6GJQsqaUBKTNV-1" vertex="1">
          <mxGeometry x="179.65" y="1360" width="120" height="40" as="geometry" />
        </mxCell>
        <mxCell id="gPIk5buHiFtilTsmk9Is-88" value="외계 생명체 조우" style="rounded=1;whiteSpace=wrap;html=1;fontSize=12;glass=0;strokeWidth=1;shadow=0;" parent="WIyWlLk6GJQsqaUBKTNV-1" vertex="1">
          <mxGeometry x="-119.99999999999997" y="1360" width="120" height="40" as="geometry" />
        </mxCell>
        <mxCell id="gPIk5buHiFtilTsmk9Is-89" style="edgeStyle=orthogonalEdgeStyle;rounded=0;orthogonalLoop=1;jettySize=auto;html=1;" parent="WIyWlLk6GJQsqaUBKTNV-1" source="gPIk5buHiFtilTsmk9Is-84" edge="1">
          <mxGeometry relative="1" as="geometry">
            <mxPoint x="160" y="1560" as="targetPoint" />
          </mxGeometry>
        </mxCell>
        <mxCell id="gPIk5buHiFtilTsmk9Is-93" style="edgeStyle=orthogonalEdgeStyle;rounded=0;orthogonalLoop=1;jettySize=auto;html=1;entryX=0.5;entryY=0;entryDx=0;entryDy=0;" parent="WIyWlLk6GJQsqaUBKTNV-1" source="gPIk5buHiFtilTsmk9Is-91" target="gPIk5buHiFtilTsmk9Is-92" edge="1">
          <mxGeometry relative="1" as="geometry" />
        </mxCell>
        <mxCell id="gPIk5buHiFtilTsmk9Is-91" value="폭풍 발생" style="rounded=1;whiteSpace=wrap;html=1;fontSize=12;glass=0;strokeWidth=1;shadow=0;" parent="WIyWlLk6GJQsqaUBKTNV-1" vertex="1">
          <mxGeometry x="659" y="1360" width="120" height="40" as="geometry" />
        </mxCell>
        <mxCell id="gPIk5buHiFtilTsmk9Is-94" style="edgeStyle=orthogonalEdgeStyle;rounded=0;orthogonalLoop=1;jettySize=auto;html=1;" parent="WIyWlLk6GJQsqaUBKTNV-1" source="gPIk5buHiFtilTsmk9Is-92" edge="1">
          <mxGeometry relative="1" as="geometry">
            <mxPoint x="719" y="1520" as="targetPoint" />
          </mxGeometry>
        </mxCell>
        <mxCell id="gPIk5buHiFtilTsmk9Is-92" value="일정 체력 감소" style="rounded=1;whiteSpace=wrap;html=1;fontSize=12;glass=0;strokeWidth=1;shadow=0;" parent="WIyWlLk6GJQsqaUBKTNV-1" vertex="1">
          <mxGeometry x="659" y="1440" width="120" height="40" as="geometry" />
        </mxCell>
        <mxCell id="gPIk5buHiFtilTsmk9Is-97" style="edgeStyle=orthogonalEdgeStyle;rounded=0;orthogonalLoop=1;jettySize=auto;html=1;" parent="WIyWlLk6GJQsqaUBKTNV-1" source="gPIk5buHiFtilTsmk9Is-96" edge="1">
          <mxGeometry relative="1" as="geometry">
            <mxPoint x="600" y="1560" as="targetPoint" />
          </mxGeometry>
        </mxCell>
        <mxCell id="gPIk5buHiFtilTsmk9Is-101" value="Yes" style="edgeLabel;html=1;align=center;verticalAlign=middle;resizable=0;points=[];" parent="gPIk5buHiFtilTsmk9Is-97" vertex="1" connectable="0">
          <mxGeometry x="-0.1563" relative="1" as="geometry">
            <mxPoint as="offset" />
          </mxGeometry>
        </mxCell>
        <mxCell id="gPIk5buHiFtilTsmk9Is-99" style="edgeStyle=orthogonalEdgeStyle;rounded=0;orthogonalLoop=1;jettySize=auto;html=1;" parent="WIyWlLk6GJQsqaUBKTNV-1" source="gPIk5buHiFtilTsmk9Is-96" edge="1">
          <mxGeometry relative="1" as="geometry">
            <mxPoint x="719" y="1640" as="targetPoint" />
          </mxGeometry>
        </mxCell>
        <mxCell id="gPIk5buHiFtilTsmk9Is-96" value="플레이어 체력이&lt;div&gt;0이 되었습니까?&lt;/div&gt;" style="rhombus;whiteSpace=wrap;html=1;shadow=0;fontFamily=Helvetica;fontSize=12;align=center;strokeWidth=1;spacing=6;spacingTop=-4;" parent="WIyWlLk6GJQsqaUBKTNV-1" vertex="1">
          <mxGeometry x="638.9999999999999" y="1520" width="160" height="80" as="geometry" />
        </mxCell>
        <mxCell id="gPIk5buHiFtilTsmk9Is-98" value="게임 종료" style="rounded=1;whiteSpace=wrap;html=1;fontSize=12;glass=0;strokeWidth=1;shadow=0;" parent="WIyWlLk6GJQsqaUBKTNV-1" vertex="1">
          <mxGeometry x="479" y="1540" width="120" height="40" as="geometry" />
        </mxCell>
        <mxCell id="gPIk5buHiFtilTsmk9Is-103" style="edgeStyle=orthogonalEdgeStyle;rounded=0;orthogonalLoop=1;jettySize=auto;html=1;" parent="WIyWlLk6GJQsqaUBKTNV-1" source="gPIk5buHiFtilTsmk9Is-102" edge="1">
          <mxGeometry relative="1" as="geometry">
            <mxPoint x="719" y="1720" as="targetPoint" />
          </mxGeometry>
        </mxCell>
        <mxCell id="gPIk5buHiFtilTsmk9Is-102" value="플레이어가 받은&amp;nbsp;&lt;div&gt;피해량과 남은체력&lt;/div&gt;&lt;div&gt;표시&lt;/div&gt;" style="rounded=1;whiteSpace=wrap;html=1;fontSize=12;glass=0;strokeWidth=1;shadow=0;" parent="WIyWlLk6GJQsqaUBKTNV-1" vertex="1">
          <mxGeometry x="658.9999999999999" y="1640" width="120" height="40" as="geometry" />
        </mxCell>
        <mxCell id="gPIk5buHiFtilTsmk9Is-106" style="edgeStyle=orthogonalEdgeStyle;rounded=0;orthogonalLoop=1;jettySize=auto;html=1;" parent="WIyWlLk6GJQsqaUBKTNV-1" source="gPIk5buHiFtilTsmk9Is-105" edge="1">
          <mxGeometry relative="1" as="geometry">
            <mxPoint x="600" y="1760" as="targetPoint" />
          </mxGeometry>
        </mxCell>
        <mxCell id="gPIk5buHiFtilTsmk9Is-108" value="Yes" style="edgeLabel;html=1;align=center;verticalAlign=middle;resizable=0;points=[];" parent="gPIk5buHiFtilTsmk9Is-106" vertex="1" connectable="0">
          <mxGeometry x="-0.2575" y="-1" relative="1" as="geometry">
            <mxPoint as="offset" />
          </mxGeometry>
        </mxCell>
        <mxCell id="gPIk5buHiFtilTsmk9Is-107" style="edgeStyle=orthogonalEdgeStyle;rounded=0;orthogonalLoop=1;jettySize=auto;html=1;" parent="WIyWlLk6GJQsqaUBKTNV-1" source="gPIk5buHiFtilTsmk9Is-105" edge="1">
          <mxGeometry relative="1" as="geometry">
            <mxPoint x="719.0000000000005" y="1840" as="targetPoint" />
          </mxGeometry>
        </mxCell>
        <mxCell id="gPIk5buHiFtilTsmk9Is-111" value="No" style="edgeLabel;html=1;align=center;verticalAlign=middle;resizable=0;points=[];" parent="gPIk5buHiFtilTsmk9Is-107" vertex="1" connectable="0">
          <mxGeometry x="-0.2319" relative="1" as="geometry">
            <mxPoint as="offset" />
          </mxGeometry>
        </mxCell>
        <mxCell id="gPIk5buHiFtilTsmk9Is-105" value="방향키를&lt;div&gt;입력했습니까?&lt;/div&gt;" style="rhombus;whiteSpace=wrap;html=1;shadow=0;fontFamily=Helvetica;fontSize=12;align=center;strokeWidth=1;spacing=6;spacingTop=-4;" parent="WIyWlLk6GJQsqaUBKTNV-1" vertex="1">
          <mxGeometry x="638.9999999999999" y="1720" width="160" height="80" as="geometry" />
        </mxCell>
        <mxCell id="gPIk5buHiFtilTsmk9Is-109" value="방 이동" style="rounded=1;whiteSpace=wrap;html=1;fontSize=12;glass=0;strokeWidth=1;shadow=0;" parent="WIyWlLk6GJQsqaUBKTNV-1" vertex="1">
          <mxGeometry x="479" y="1740" width="120" height="40" as="geometry" />
        </mxCell>
        <mxCell id="gPIk5buHiFtilTsmk9Is-116" value="입력을 받을 때까지 대기" style="rounded=1;whiteSpace=wrap;html=1;fontSize=12;glass=0;strokeWidth=1;shadow=0;" parent="WIyWlLk6GJQsqaUBKTNV-1" vertex="1">
          <mxGeometry x="-170" y="300" width="120" height="40" as="geometry" />
        </mxCell>
        <mxCell id="gPIk5buHiFtilTsmk9Is-120" style="edgeStyle=orthogonalEdgeStyle;rounded=0;orthogonalLoop=1;jettySize=auto;html=1;" parent="WIyWlLk6GJQsqaUBKTNV-1" source="gPIk5buHiFtilTsmk9Is-117" edge="1">
          <mxGeometry relative="1" as="geometry">
            <mxPoint x="800" y="1760" as="targetPoint" />
            <Array as="points">
              <mxPoint x="820" y="1860" />
              <mxPoint x="820" y="1760" />
            </Array>
          </mxGeometry>
        </mxCell>
        <mxCell id="gPIk5buHiFtilTsmk9Is-117" value="입력을 받을 때까지&lt;div&gt;대기&lt;/div&gt;" style="rounded=1;whiteSpace=wrap;html=1;fontSize=12;glass=0;strokeWidth=1;shadow=0;" parent="WIyWlLk6GJQsqaUBKTNV-1" vertex="1">
          <mxGeometry x="659" y="1840" width="120" height="40" as="geometry" />
        </mxCell>
        <mxCell id="gPIk5buHiFtilTsmk9Is-121" value="" style="endArrow=none;html=1;rounded=0;" parent="WIyWlLk6GJQsqaUBKTNV-1" edge="1">
          <mxGeometry width="50" height="50" relative="1" as="geometry">
            <mxPoint x="-240" y="1320" as="sourcePoint" />
            <mxPoint x="-60" y="1320" as="targetPoint" />
          </mxGeometry>
        </mxCell>
        <mxCell id="gPIk5buHiFtilTsmk9Is-122" value="" style="endArrow=classic;html=1;rounded=0;" parent="WIyWlLk6GJQsqaUBKTNV-1" edge="1">
          <mxGeometry width="50" height="50" relative="1" as="geometry">
            <mxPoint x="-240" y="1320" as="sourcePoint" />
            <mxPoint x="-240" y="1360" as="targetPoint" />
          </mxGeometry>
        </mxCell>
        <mxCell id="gPIk5buHiFtilTsmk9Is-124" style="edgeStyle=orthogonalEdgeStyle;rounded=0;orthogonalLoop=1;jettySize=auto;html=1;" parent="WIyWlLk6GJQsqaUBKTNV-1" source="gPIk5buHiFtilTsmk9Is-123" edge="1">
          <mxGeometry relative="1" as="geometry">
            <mxPoint x="-240" y="1440" as="targetPoint" />
          </mxGeometry>
        </mxCell>
        <mxCell id="gPIk5buHiFtilTsmk9Is-123" value="부품 발견" style="rounded=1;whiteSpace=wrap;html=1;fontSize=12;glass=0;strokeWidth=1;shadow=0;" parent="WIyWlLk6GJQsqaUBKTNV-1" vertex="1">
          <mxGeometry x="-300" y="1360" width="120" height="40" as="geometry" />
        </mxCell>
        <mxCell id="gPIk5buHiFtilTsmk9Is-127" style="edgeStyle=orthogonalEdgeStyle;rounded=0;orthogonalLoop=1;jettySize=auto;html=1;entryX=0.5;entryY=0;entryDx=0;entryDy=0;" parent="WIyWlLk6GJQsqaUBKTNV-1" source="gPIk5buHiFtilTsmk9Is-125" target="gPIk5buHiFtilTsmk9Is-126" edge="1">
          <mxGeometry relative="1" as="geometry" />
        </mxCell>
        <mxCell id="gPIk5buHiFtilTsmk9Is-125" value="플레이어가 가진&lt;div&gt;부품 개수 변경&lt;/div&gt;" style="rounded=1;whiteSpace=wrap;html=1;fontSize=12;glass=0;strokeWidth=1;shadow=0;" parent="WIyWlLk6GJQsqaUBKTNV-1" vertex="1">
          <mxGeometry x="-300" y="1440" width="120" height="40" as="geometry" />
        </mxCell>
        <mxCell id="gPIk5buHiFtilTsmk9Is-128" style="edgeStyle=orthogonalEdgeStyle;rounded=0;orthogonalLoop=1;jettySize=auto;html=1;" parent="WIyWlLk6GJQsqaUBKTNV-1" source="gPIk5buHiFtilTsmk9Is-126" edge="1">
          <mxGeometry relative="1" as="geometry">
            <mxPoint x="-240" y="1640" as="targetPoint" />
          </mxGeometry>
        </mxCell>
        <mxCell id="gPIk5buHiFtilTsmk9Is-129" value="No" style="edgeLabel;html=1;align=center;verticalAlign=middle;resizable=0;points=[];" parent="gPIk5buHiFtilTsmk9Is-128" vertex="1" connectable="0">
          <mxGeometry x="-0.2081" y="-1" relative="1" as="geometry">
            <mxPoint as="offset" />
          </mxGeometry>
        </mxCell>
        <mxCell id="gPIk5buHiFtilTsmk9Is-130" style="edgeStyle=orthogonalEdgeStyle;rounded=0;orthogonalLoop=1;jettySize=auto;html=1;" parent="WIyWlLk6GJQsqaUBKTNV-1" source="gPIk5buHiFtilTsmk9Is-126" edge="1">
          <mxGeometry relative="1" as="geometry">
            <mxPoint x="-360" y="1560" as="targetPoint" />
          </mxGeometry>
        </mxCell>
        <mxCell id="gPIk5buHiFtilTsmk9Is-131" value="Yes" style="edgeLabel;html=1;align=center;verticalAlign=middle;resizable=0;points=[];" parent="gPIk5buHiFtilTsmk9Is-130" vertex="1" connectable="0">
          <mxGeometry x="-0.1658" relative="1" as="geometry">
            <mxPoint as="offset" />
          </mxGeometry>
        </mxCell>
        <mxCell id="gPIk5buHiFtilTsmk9Is-126" value="부품 개수가&lt;div&gt;목표치까지&lt;/div&gt;&lt;div&gt;도달했는가?&lt;br&gt;&lt;/div&gt;" style="rhombus;whiteSpace=wrap;html=1;shadow=0;fontFamily=Helvetica;fontSize=12;align=center;strokeWidth=1;spacing=6;spacingTop=-4;" parent="WIyWlLk6GJQsqaUBKTNV-1" vertex="1">
          <mxGeometry x="-320" y="1520" width="160" height="80" as="geometry" />
        </mxCell>
        <mxCell id="gPIk5buHiFtilTsmk9Is-152" style="edgeStyle=orthogonalEdgeStyle;rounded=0;orthogonalLoop=1;jettySize=auto;html=1;" parent="WIyWlLk6GJQsqaUBKTNV-1" source="gPIk5buHiFtilTsmk9Is-132" edge="1">
          <mxGeometry relative="1" as="geometry">
            <mxPoint x="-239.99999999999977" y="1720" as="targetPoint" />
          </mxGeometry>
        </mxCell>
        <mxCell id="gPIk5buHiFtilTsmk9Is-132" value="플레이어가 가진&lt;div&gt;부품 개수 변경&lt;/div&gt;" style="rounded=1;whiteSpace=wrap;html=1;fontSize=12;glass=0;strokeWidth=1;shadow=0;" parent="WIyWlLk6GJQsqaUBKTNV-1" vertex="1">
          <mxGeometry x="-300" y="1640" width="120" height="40" as="geometry" />
        </mxCell>
        <mxCell id="gPIk5buHiFtilTsmk9Is-134" value="" style="endArrow=none;html=1;rounded=0;entryX=0.5;entryY=1;entryDx=0;entryDy=0;" parent="WIyWlLk6GJQsqaUBKTNV-1" target="gPIk5buHiFtilTsmk9Is-71" edge="1">
          <mxGeometry width="50" height="50" relative="1" as="geometry">
            <mxPoint x="240" y="1640" as="sourcePoint" />
            <mxPoint x="280" y="1590" as="targetPoint" />
            <Array as="points">
              <mxPoint x="320" y="1640" />
            </Array>
          </mxGeometry>
        </mxCell>
        <mxCell id="gPIk5buHiFtilTsmk9Is-141" style="edgeStyle=orthogonalEdgeStyle;rounded=0;orthogonalLoop=1;jettySize=auto;html=1;" parent="WIyWlLk6GJQsqaUBKTNV-1" source="gPIk5buHiFtilTsmk9Is-145" edge="1">
          <mxGeometry relative="1" as="geometry">
            <mxPoint x="121" y="1720" as="targetPoint" />
          </mxGeometry>
        </mxCell>
        <mxCell id="gPIk5buHiFtilTsmk9Is-142" value="Yes" style="edgeLabel;html=1;align=center;verticalAlign=middle;resizable=0;points=[];" parent="gPIk5buHiFtilTsmk9Is-141" vertex="1" connectable="0">
          <mxGeometry x="-0.2575" y="-1" relative="1" as="geometry">
            <mxPoint as="offset" />
          </mxGeometry>
        </mxCell>
        <mxCell id="gPIk5buHiFtilTsmk9Is-143" style="edgeStyle=orthogonalEdgeStyle;rounded=0;orthogonalLoop=1;jettySize=auto;html=1;" parent="WIyWlLk6GJQsqaUBKTNV-1" source="gPIk5buHiFtilTsmk9Is-145" edge="1">
          <mxGeometry relative="1" as="geometry">
            <mxPoint x="240.00000000000045" y="1800" as="targetPoint" />
          </mxGeometry>
        </mxCell>
        <mxCell id="gPIk5buHiFtilTsmk9Is-144" value="No" style="edgeLabel;html=1;align=center;verticalAlign=middle;resizable=0;points=[];" parent="gPIk5buHiFtilTsmk9Is-143" vertex="1" connectable="0">
          <mxGeometry x="-0.2319" relative="1" as="geometry">
            <mxPoint as="offset" />
          </mxGeometry>
        </mxCell>
        <mxCell id="gPIk5buHiFtilTsmk9Is-145" value="방향키를&lt;div&gt;입력했습니까?&lt;/div&gt;" style="rhombus;whiteSpace=wrap;html=1;shadow=0;fontFamily=Helvetica;fontSize=12;align=center;strokeWidth=1;spacing=6;spacingTop=-4;" parent="WIyWlLk6GJQsqaUBKTNV-1" vertex="1">
          <mxGeometry x="159.9999999999999" y="1680" width="160" height="80" as="geometry" />
        </mxCell>
        <mxCell id="gPIk5buHiFtilTsmk9Is-146" value="방 이동" style="rounded=1;whiteSpace=wrap;html=1;fontSize=12;glass=0;strokeWidth=1;shadow=0;" parent="WIyWlLk6GJQsqaUBKTNV-1" vertex="1">
          <mxGeometry y="1700" width="120" height="40" as="geometry" />
        </mxCell>
        <mxCell id="gPIk5buHiFtilTsmk9Is-147" style="edgeStyle=orthogonalEdgeStyle;rounded=0;orthogonalLoop=1;jettySize=auto;html=1;" parent="WIyWlLk6GJQsqaUBKTNV-1" source="gPIk5buHiFtilTsmk9Is-148" edge="1">
          <mxGeometry relative="1" as="geometry">
            <mxPoint x="321" y="1720" as="targetPoint" />
            <Array as="points">
              <mxPoint x="341" y="1820" />
              <mxPoint x="341" y="1720" />
            </Array>
          </mxGeometry>
        </mxCell>
        <mxCell id="gPIk5buHiFtilTsmk9Is-148" value="입력을 받을 때까지&lt;div&gt;대기&lt;/div&gt;" style="rounded=1;whiteSpace=wrap;html=1;fontSize=12;glass=0;strokeWidth=1;shadow=0;" parent="WIyWlLk6GJQsqaUBKTNV-1" vertex="1">
          <mxGeometry x="180" y="1800" width="120" height="40" as="geometry" />
        </mxCell>
        <mxCell id="gPIk5buHiFtilTsmk9Is-151" style="edgeStyle=orthogonalEdgeStyle;rounded=0;orthogonalLoop=1;jettySize=auto;html=1;entryX=1;entryY=0.5;entryDx=0;entryDy=0;" parent="WIyWlLk6GJQsqaUBKTNV-1" source="gPIk5buHiFtilTsmk9Is-149" target="gPIk5buHiFtilTsmk9Is-150" edge="1">
          <mxGeometry relative="1" as="geometry" />
        </mxCell>
        <mxCell id="gPIk5buHiFtilTsmk9Is-149" value="탈출 안내" style="rounded=1;whiteSpace=wrap;html=1;fontSize=12;glass=0;strokeWidth=1;shadow=0;" parent="WIyWlLk6GJQsqaUBKTNV-1" vertex="1">
          <mxGeometry x="-480" y="1540" width="120" height="40" as="geometry" />
        </mxCell>
        <mxCell id="gPIk5buHiFtilTsmk9Is-150" value="게임 종료" style="rounded=1;whiteSpace=wrap;html=1;fontSize=12;glass=0;strokeWidth=1;shadow=0;" parent="WIyWlLk6GJQsqaUBKTNV-1" vertex="1">
          <mxGeometry x="-640" y="1540" width="120" height="40" as="geometry" />
        </mxCell>
        <mxCell id="gPIk5buHiFtilTsmk9Is-153" style="edgeStyle=orthogonalEdgeStyle;rounded=0;orthogonalLoop=1;jettySize=auto;html=1;" parent="WIyWlLk6GJQsqaUBKTNV-1" source="gPIk5buHiFtilTsmk9Is-157" edge="1">
          <mxGeometry relative="1" as="geometry">
            <mxPoint x="-359" y="1760" as="targetPoint" />
          </mxGeometry>
        </mxCell>
        <mxCell id="gPIk5buHiFtilTsmk9Is-154" value="Yes" style="edgeLabel;html=1;align=center;verticalAlign=middle;resizable=0;points=[];" parent="gPIk5buHiFtilTsmk9Is-153" vertex="1" connectable="0">
          <mxGeometry x="-0.2575" y="-1" relative="1" as="geometry">
            <mxPoint as="offset" />
          </mxGeometry>
        </mxCell>
        <mxCell id="gPIk5buHiFtilTsmk9Is-155" style="edgeStyle=orthogonalEdgeStyle;rounded=0;orthogonalLoop=1;jettySize=auto;html=1;" parent="WIyWlLk6GJQsqaUBKTNV-1" source="gPIk5buHiFtilTsmk9Is-157" edge="1">
          <mxGeometry relative="1" as="geometry">
            <mxPoint x="-239.99999999999955" y="1840" as="targetPoint" />
          </mxGeometry>
        </mxCell>
        <mxCell id="gPIk5buHiFtilTsmk9Is-156" value="No" style="edgeLabel;html=1;align=center;verticalAlign=middle;resizable=0;points=[];" parent="gPIk5buHiFtilTsmk9Is-155" vertex="1" connectable="0">
          <mxGeometry x="-0.2319" relative="1" as="geometry">
            <mxPoint as="offset" />
          </mxGeometry>
        </mxCell>
        <mxCell id="gPIk5buHiFtilTsmk9Is-157" value="방향키를&lt;div&gt;입력했습니까?&lt;/div&gt;" style="rhombus;whiteSpace=wrap;html=1;shadow=0;fontFamily=Helvetica;fontSize=12;align=center;strokeWidth=1;spacing=6;spacingTop=-4;" parent="WIyWlLk6GJQsqaUBKTNV-1" vertex="1">
          <mxGeometry x="-320.0000000000001" y="1720" width="160" height="80" as="geometry" />
        </mxCell>
        <mxCell id="gPIk5buHiFtilTsmk9Is-158" value="방 이동" style="rounded=1;whiteSpace=wrap;html=1;fontSize=12;glass=0;strokeWidth=1;shadow=0;" parent="WIyWlLk6GJQsqaUBKTNV-1" vertex="1">
          <mxGeometry x="-480" y="1740" width="120" height="40" as="geometry" />
        </mxCell>
        <mxCell id="gPIk5buHiFtilTsmk9Is-159" style="edgeStyle=orthogonalEdgeStyle;rounded=0;orthogonalLoop=1;jettySize=auto;html=1;" parent="WIyWlLk6GJQsqaUBKTNV-1" source="gPIk5buHiFtilTsmk9Is-160" edge="1">
          <mxGeometry relative="1" as="geometry">
            <mxPoint x="-159" y="1760" as="targetPoint" />
            <Array as="points">
              <mxPoint x="-139" y="1860" />
              <mxPoint x="-139" y="1760" />
            </Array>
          </mxGeometry>
        </mxCell>
        <mxCell id="gPIk5buHiFtilTsmk9Is-160" value="입력을 받을 때까지&lt;div&gt;대기&lt;/div&gt;" style="rounded=1;whiteSpace=wrap;html=1;fontSize=12;glass=0;strokeWidth=1;shadow=0;" parent="WIyWlLk6GJQsqaUBKTNV-1" vertex="1">
          <mxGeometry x="-300" y="1840" width="120" height="40" as="geometry" />
        </mxCell>
      </root>
    </mxGraphModel>
  </diagram>
</mxfile>
